<svg xmlns="http://www.w3.org/2000/svg" xmlns:xlink="http://www.w3.org/1999/xlink" width="270" zoomAndPan="magnify" viewBox="0 0 202.5 202.499993" height="270" preserveAspectRatio="xMidYMid meet" version="1.0"><defs><clipPath id="862ab5ca21"><path d="M 3.292969 84.003906 L 52 84.003906 L 52 119.167969 L 3.292969 119.167969 Z M 3.292969 84.003906 " clip-rule="nonzero"/></clipPath><clipPath id="9ade7b072a"><path d="M 58 93 L 198.558594 93 L 198.558594 111 L 58 111 Z M 58 93 " clip-rule="nonzero"/></clipPath></defs><g clip-path="url(#862ab5ca21)"><path fill="#ffffff" d="M 38.707031 85.628906 L 37.613281 87.242188 C 44.808594 90.179688 47.6875 95.597656 47.6875 101.300781 C 47.6875 104.179688 46.941406 106.773438 45.386719 106.773438 L 26.613281 106.773438 C 24.023438 106.773438 23.273438 105.851562 24.425781 103.546875 C 26.5 99.570312 32.660156 91.792969 36.460938 87.070312 C 37.035156 86.378906 37.496094 85.285156 35.480469 84.765625 C 33.464844 84.246094 30.125 84.015625 27.363281 84.015625 C 13.195312 84.015625 3.292969 91.679688 3.292969 101.585938 C 3.292969 110.6875 11.871094 119.15625 27.304688 119.15625 C 34.15625 119.15625 42.507812 117.257812 47.230469 111.839844 L 43.140625 111.839844 C 38.535156 116.046875 32.488281 116.96875 27.304688 116.96875 C 14.867188 116.96875 6.976562 110.515625 6.976562 101.585938 C 6.976562 93.347656 15.902344 85.917969 27.1875 85.917969 C 28.515625 85.917969 28.972656 86.207031 27.535156 87.992188 C 24.65625 91.5625 19.53125 98.648438 17.113281 102.796875 C 14.519531 107.234375 17.167969 110.863281 22.984375 110.863281 L 46.539062 110.863281 C 47.976562 110.863281 48.839844 110.054688 49.648438 108.5 C 50.339844 107.289062 51.375 104.871094 51.375 101.53125 C 51.433594 94.847656 46.421875 88.683594 38.707031 85.628906 " fill-opacity="1" fill-rule="nonzero"/></g><g clip-path="url(#9ade7b072a)"><path fill="#ffffff" d="M 192.570312 100.261719 L 176.5625 100.261719 C 177.082031 98.246094 178.691406 96.804688 181.628906 96.804688 L 196.949219 96.804688 L 196.949219 93.347656 L 180.707031 93.347656 C 171.4375 93.347656 169.25 99.917969 169.25 103.660156 L 189.058594 103.660156 C 191.765625 103.660156 191.765625 107.347656 189.171875 107.347656 C 186.46875 107.347656 167.292969 107.347656 167.292969 107.347656 L 167.292969 93.40625 L 160.726562 93.40625 L 160.726562 107.40625 L 149.785156 107.40625 C 146.847656 107.40625 145.640625 106.023438 145.640625 103.832031 C 145.640625 101.242188 145.640625 93.40625 145.640625 93.40625 L 135.101562 93.40625 L 125.660156 99.339844 L 117.539062 93.40625 L 94.101562 93.40625 C 87.308594 93.40625 82.527344 97.382812 81.953125 102.335938 L 86.328125 102.335938 C 84.542969 103.488281 83.21875 105.390625 82.414062 107.464844 L 68.535156 107.464844 C 65.945312 107.464844 64.675781 106.082031 64.675781 103.546875 L 64.675781 93.40625 L 58.054688 93.40625 L 58.054688 101.992188 C 58.054688 107.464844 61.050781 110.863281 67.730469 110.863281 L 113.910156 110.863281 L 123.414062 104.871094 L 131.589844 110.863281 L 141.320312 110.863281 L 128.652344 101.585938 L 138.960938 95.078125 L 138.960938 104.929688 C 138.960938 107.980469 142.933594 110.863281 146.503906 110.863281 L 192.628906 110.863281 C 200.632812 110.863281 200.574219 100.261719 192.570312 100.261719 M 112.703125 107.40625 L 90.300781 107.40625 C 90.53125 105.503906 91.511719 103.660156 94.5625 103.660156 L 108.441406 103.660156 L 108.441406 100.261719 L 89.957031 100.261719 C 90.300781 98.820312 91.742188 96.863281 95.023438 96.863281 L 109.707031 96.863281 L 109.707031 94.960938 L 120.246094 102.683594 Z M 112.703125 107.40625 " fill-opacity="1" fill-rule="nonzero"/></g></svg>